<?xml version="1.0" encoding="UTF-8"?>
<svg version="1.1" xmlns="http://www.w3.org/2000/svg" width="1200" height="1200">
<path d="M0 0 C396 0 792 0 1200 0 C1200 396 1200 792 1200 1200 C804 1200 408 1200 0 1200 C0 804 0 408 0 0 Z " fill="#FEFEFE" transform="translate(0,0)"/>
<path d="M0 0 C2.29686357 0.00282257 4.59373615 0.00123383 6.89059448 -0.00442505 C13.11173204 -0.0072901 19.33093501 0.05143106 25.55162358 0.12131453 C32.05778859 0.18389897 38.56399974 0.18970742 45.07041931 0.2015686 C55.98626118 0.22910181 66.90139004 0.29152912 77.81689453 0.38085938 C89.05644203 0.4727455 100.29579692 0.54348205 111.53564453 0.5859375 C112.22924999 0.58856473 112.92285545 0.59119197 113.63747925 0.59389882 C117.11733094 0.60694984 120.59718398 0.61958676 124.07703793 0.63201785 C152.91502651 0.73557096 181.75229606 0.91234824 210.58959961 1.13525391 C210.66068711 19.41333961 204.51148046 35.79008976 191.78955078 49.05908203 C169.80883148 71.05861078 144.30301963 72.23008261 114.6977396 72.25142574 C110.80621318 72.24847142 106.91471267 72.24078489 103.02319336 72.23291016 C100.28980028 72.23047874 97.55640725 72.22957037 94.82301331 72.22862244 C88.40973941 72.2255401 81.996483 72.21736941 75.58321673 72.20727295 C68.26978392 72.1960144 60.95635018 72.19057705 53.64291084 72.18557751 C38.62513077 72.17518345 23.60736695 72.15764538 8.58959961 72.13525391 C9.202715 72.8113118 9.81583038 73.48736969 10.44752502 74.18391418 C11.25439255 75.07640366 12.06126007 75.96889313 12.89257812 76.88842773 C13.69131851 77.77073563 14.4900589 78.65304352 15.31300354 79.56208801 C18.23076545 82.85994376 20.9157413 86.28034169 23.52709961 89.82275391 C24.28603516 90.8461084 24.28603516 90.8461084 25.06030273 91.89013672 C37.84724753 109.27364323 49.40526141 127.69768461 58.6628418 147.20507812 C59.58423091 149.12407241 60.53979064 151.0224525 61.50366211 152.92041016 C99.15487995 228.26051589 102.38533907 321.74947244 76.58959961 401.13525391 C76.17025146 402.44260498 76.17025146 402.44260498 75.74243164 403.77636719 C71.5742699 416.64097381 66.40542122 428.93333135 60.58959961 441.13525391 C60.08493164 442.19437988 60.08493164 442.19437988 59.57006836 443.27490234 C51.51024354 460.04479681 42.52930664 476.06994792 31.58959961 491.13525391 C31.10201172 491.80830566 30.61442383 492.48135742 30.11206055 493.17480469 C23.3236636 502.49503046 16.22163753 511.48939715 8.58959961 520.13525391 C7.93378906 520.87864014 7.27797852 521.62202637 6.60229492 522.38793945 C-5.10715504 535.53604498 -17.42659009 548.39585187 -31.41040039 559.13525391 C-32.4981886 560.03117919 -33.58259506 560.93122 -34.66430664 561.83447266 C-45.03026573 570.4325827 -56.06010215 577.90087636 -67.41040039 585.13525391 C-68.48064453 585.81950439 -68.48064453 585.81950439 -69.57250977 586.51757812 C-105.74092164 609.3732728 -147.41661415 623.7824337 -189.41040039 631.13525391 C-190.47774414 631.33135254 -191.54508789 631.52745117 -192.64477539 631.72949219 C-226.76990899 637.79563149 -264.25051179 637.93129526 -298.41040039 632.13525391 C-299.46759277 631.96364746 -300.52478516 631.79204102 -301.61401367 631.61523438 C-352.46195585 623.19699983 -401.65451972 603.50126198 -443.41040039 573.13525391 C-444.09505371 572.63993164 -444.77970703 572.14460937 -445.48510742 571.63427734 C-453.87379712 565.53868968 -461.82032952 559.21472001 -469.41040039 552.13525391 C-470.69726362 551.0047625 -471.98879999 549.87956405 -473.28540039 548.76025391 C-476.80641823 545.6793633 -480.30778108 542.57750775 -483.78540039 539.44775391 C-484.3098877 538.98385254 -484.834375 538.51995117 -485.37475586 538.04199219 C-488.04947023 535.61860498 -490.09145667 533.52795855 -491.41040039 530.13525391 C-492.07040039 530.13525391 -492.73040039 530.13525391 -493.41040039 530.13525391 C-494.67993164 528.91259766 -494.67993164 528.91259766 -496.22290039 527.07275391 C-498.54282514 524.33102466 -500.8726544 521.60644654 -503.26977539 518.93212891 C-509.47668879 511.96709709 -515.33686776 504.80619677 -520.91040039 497.32275391 C-521.48540283 496.55922607 -522.06040527 495.79569824 -522.65283203 495.0090332 C-535.92381054 476.91649303 -540.90072797 454.18229019 -537.91040039 432.01806641 C-535.09608189 414.1947594 -527.44744505 397.60005022 -515.41040039 384.13525391 C-514.68336914 383.31412109 -513.95633789 382.49298828 -513.20727539 381.64697266 C-497.70743502 365.14631478 -475.81605994 354.98630696 -453.14873266 354.04092717 C-450.77914652 354.00312735 -448.41132785 353.99414773 -446.04144287 353.9972229 C-445.14202131 353.99440162 -444.24259974 353.99158034 -443.31592298 353.98867357 C-440.32494557 353.98039155 -437.33400548 353.97899481 -434.34301758 353.97753906 C-432.18859759 353.97286589 -430.03417858 353.9677215 -427.87976074 353.96214294 C-423.24890995 353.95089221 -418.61806547 353.94244326 -413.98720551 353.93602371 C-406.6464146 353.92529784 -399.30566905 353.90503866 -391.96490479 353.88290405 C-371.09291679 353.82114085 -350.22093141 353.76707578 -329.34887695 353.73388672 C-317.81438786 353.71546554 -306.27997487 353.68643441 -294.74554181 353.64588201 C-288.65338841 353.62493362 -282.5613304 353.60937217 -276.4691391 353.60707474 C-270.72672028 353.60490663 -264.98449988 353.58881998 -259.24214172 353.56268501 C-257.15141651 353.55557155 -255.06066705 353.55335164 -252.96993256 353.55678749 C-204.77029689 353.62326062 -162.4703195 337.49226266 -127.41040039 304.13525391 C-126.36625977 303.18779297 -126.36625977 303.18779297 -125.30102539 302.22119141 C-100.21771425 278.69263095 -85.64347999 243.50897878 -80.41040039 210.13525391 C-80.23873856 209.04095566 -80.06707672 207.94665741 -79.89021301 206.81919861 C-79.15101382 200.80631847 -79.30715061 194.78179167 -79.34790039 188.73364258 C-79.35306212 187.39072367 -79.35764936 186.04780245 -79.36170959 184.70487976 C-79.37072972 181.82610649 -79.38202056 178.94735393 -79.39456177 176.06859398 C-79.41261617 171.50724424 -79.41447504 166.94597768 -79.41210938 162.38459778 C-79.41174022 161.61232682 -79.41137106 160.84005586 -79.41099072 160.04438275 C-79.40922743 156.86277361 -79.40701787 153.68116483 -79.40484428 150.49955595 C-79.39959338 141.49467682 -79.40931789 132.49033966 -79.46166992 123.4855957 C-79.50325166 116.31397934 -79.51282148 109.14310837 -79.48555946 101.97141248 C-79.47236878 98.18396815 -79.4749582 94.39807083 -79.51660156 90.61079979 C-79.55548027 87.04520602 -79.55164362 83.48209856 -79.51647758 79.91649055 C-79.50838108 78.0017737 -79.54453817 76.08702539 -79.58253479 74.17266846 C-79.42383429 64.6157254 -76.01510545 59.82077448 -69.41040039 53.13525391 C-68.102949 51.70678917 -66.79772575 50.2762762 -65.49633789 48.84228516 C-64.26303811 47.54061206 -63.02611793 46.24235855 -61.78540039 44.94775391 C-57.41806938 40.36571102 -53.13972287 35.73595301 -48.9909668 30.9543457 C-46.99300313 28.65486667 -44.95491178 26.39337096 -42.91040039 24.13525391 C-40.22056608 21.1546267 -37.54729675 18.16280158 -34.91040039 15.13525391 C-34.36653152 14.54211081 -33.82266264 13.9489677 -33.26231289 13.33785057 C-31.33965675 11.16894539 -31.33965675 11.16894539 -29.88771915 8.59704018 C-22.59232467 -2.13355841 -11.6602171 -0.20014932 0 0 Z " fill="#191BA9" transform="translate(775.410400390625,168.86474609375)"/>
<path d="M0 0 C35.77138527 -0.06885408 71.54275881 -0.12162377 107.31419685 -0.15319599 C111.54930843 -0.15694755 115.78441987 -0.16083057 120.01953125 -0.16479492 C120.86257039 -0.16558185 121.70560954 -0.16636878 122.57419533 -0.16717956 C136.1765069 -0.18018917 149.77877995 -0.20381815 163.38106877 -0.23145839 C177.36621572 -0.25963695 191.35134268 -0.2762024 205.33651686 -0.28226548 C213.94742874 -0.28635628 222.5582317 -0.29921681 231.16911 -0.3237494 C237.09548098 -0.33976083 243.02179668 -0.34436606 248.94818765 -0.34050413 C252.35372505 -0.33860615 255.75892369 -0.3429598 259.1644516 -0.35761642 C309.54677821 -0.56359951 354.33038889 10.94154907 391 47 C401.65491519 57.6211971 410.97391973 71.17194163 417 85 C417 86.32 417 87.64 417 89 C386.24489947 104.34049593 353.8663077 115.07024482 320 121 C318.93265625 121.19609863 317.8653125 121.39219727 316.765625 121.59423828 C282.6404914 127.66037758 245.1598886 127.79604135 211 122 C209.94280762 121.82839355 208.88561523 121.65678711 207.79638672 121.47998047 C156.94844454 113.06174592 107.75588067 93.36600808 66 63 C65.31534668 62.50467773 64.63069336 62.00935547 63.92529297 61.49902344 C55.53660328 55.40343577 47.59007087 49.0794661 40 42 C38.71313677 40.8695086 37.4216004 39.74431014 36.125 38.625 C32.60398216 35.54410939 29.10261931 32.44225385 25.625 29.3125 C25.1005127 28.84859863 24.57602539 28.38469727 24.03564453 27.90673828 C21.36093016 25.48335107 19.31894372 23.39270464 18 20 C17.34 20 16.68 20 16 20 C14.58984375 18.63671875 14.58984375 18.63671875 12.9375 16.6875 C12.32648438 15.96820312 11.71546875 15.24890625 11.0859375 14.5078125 C10.39757812 13.68023438 9.70921875 12.85265625 9 12 C7.78183594 10.54207031 7.78183594 10.54207031 6.5390625 9.0546875 C0 1.15417981 0 1.15417981 0 0 Z " fill="#4647B9" transform="translate(266,679)"/>
<path d="M0 0 C87.45 0 174.9 0 265 0 C265 17.51910215 259.67183854 32.79055399 248 46 C247.28199219 46.82371094 246.56398438 47.64742187 245.82421875 48.49609375 C233.68546654 61.5487291 216.60778316 69.14012697 198.82826996 70.18670082 C195.29392706 70.26530531 191.7647027 70.28174046 188.22949219 70.2746582 C186.88276388 70.27901666 185.53603804 70.28420353 184.1893158 70.29014587 C180.56301419 70.30342788 176.93681749 70.30412653 173.31049633 70.30158257 C170.26682282 70.30050511 167.22316987 70.30541607 164.17950082 70.310188 C156.98862912 70.32124666 149.79780966 70.3217417 142.60693359 70.31567383 C135.22755631 70.30964187 127.84837008 70.32193362 120.46902537 70.3432439 C114.09918287 70.36095183 107.72940066 70.36684673 101.3595345 70.36360615 C97.57029214 70.36180714 93.78118596 70.36428898 89.99196625 70.37832069 C86.42294116 70.39104468 82.85421009 70.38882007 79.28518867 70.37590981 C77.37852816 70.37247727 75.47185803 70.38361465 73.56523132 70.39547729 C61.92704822 70.3259597 49.97708653 68.91372186 39.625 63.25 C38.95855469 62.90001953 38.29210937 62.55003906 37.60546875 62.18945312 C32.27912622 59.31862718 27.49299239 56.06810176 23 52 C22.32839844 51.41992188 21.65679687 50.83984375 20.96484375 50.2421875 C7.83320349 38.14792151 2.42925014 22.13357488 0 5 C0 3.35 0 1.7 0 0 Z " fill="#4647B9" transform="translate(420,170)"/>
<path d="M0 0 C1.7344364 0.02055118 3.46893725 0.03619283 5.20346069 0.04716492 C9.73928346 0.08889821 14.27114734 0.19669353 18.80541992 0.31890869 C23.44395394 0.43203125 28.08313649 0.48179975 32.72265625 0.53710938 C41.80381013 0.65460544 50.88204297 0.84199735 59.9609375 1.07421875 C59.97802394 2.66239703 59.99016404 4.25062899 60.00024414 5.83886719 C60.01118858 7.16552399 60.01118858 7.16552399 60.02235413 8.51898193 C59.6264728 24.98961204 49.76584761 41.57690375 38.27734375 52.6640625 C18.52345616 70.10939483 -3.93294836 72.26553383 -29.18359375 72.171875 C-30.68958997 72.17000432 -32.19558681 72.1685835 -33.70158386 72.16758728 C-37.61904655 72.16381319 -41.53647073 72.1540281 -45.45391846 72.1428833 C-49.46992472 72.1325578 -53.48593735 72.12806607 -57.50195312 72.12304688 C-65.34767359 72.11239994 -73.1933626 72.09538689 -81.0390625 72.07421875 C-79.19326937 68.10307961 -76.59302306 65.22364422 -73.6015625 62.07421875 C-72.51540009 60.91427306 -71.42946778 59.75411188 -70.34375 58.59375 C-69.79299805 58.00803223 -69.24224609 57.42231445 -68.67480469 56.81884766 C-66.17303893 54.15054645 -63.6977963 51.45827856 -61.2265625 48.76171875 C-60.76491699 48.25874268 -60.30327148 47.7557666 -59.82763672 47.23754883 C-57.42251681 44.6103443 -55.05216777 41.95942086 -52.7265625 39.26171875 C-49.26852338 35.26780916 -45.65192185 31.42740342 -42.0390625 27.57421875 C-36.58849525 21.76796852 -36.58849525 21.76796852 -31.2890625 15.82421875 C-30.80303558 15.28336136 -30.31700867 14.74250397 -29.81625366 14.18525696 C-27.94308933 12.03136852 -27.94308933 12.03136852 -26.16836548 9.33952332 C-18.61994153 -0.69956817 -11.80351884 -0.41328639 0 0 Z " fill="#4647B9" transform="translate(806.0390625,732.92578125)"/>
<path d="M0 0 C3.85220735 2.64082139 6.37450751 5.81102252 7.86328125 10.27734375 C8.1015625 12.51171875 8.1015625 12.51171875 8.17578125 15.02734375 C8.23185547 16.25710938 8.23185547 16.25710938 8.2890625 17.51171875 C7.18548268 24.67992531 2.12847793 29.41458407 -2.88671875 34.21484375 C-3.48871094 34.80330078 -4.09070313 35.39175781 -4.7109375 35.99804688 C-6.17936523 37.43151204 -7.65708852 38.85544475 -9.13671875 40.27734375 C-26.40202487 25.88958865 -26.40202487 25.88958865 -27.57421875 15.33984375 C-27.32487308 9.50288834 -24.8297288 4.92694329 -20.69921875 0.90234375 C-13.61321064 -3.59122237 -7.4134092 -4.04498638 0 0 Z " fill="#4647B9" transform="translate(401.13671875,365.72265625)"/>
<path d="M0 0 C5.55862161 3.13990003 8.01287885 7.96614605 9.75 13.9375 C9.75 19.95725704 8.21379507 24.62959519 4.5 29.375 C-0.76136197 33.44059789 -5.59121846 35.3177451 -12.25 34.5 C-18.14008698 32.50660536 -21.7050225 29.54890735 -25.25 24.5 C-27.03793044 19.13620867 -26.94055197 13.61227662 -25.1875 8.25 C-19.03134154 -0.4877733 -10.27041043 -4.42387698 0 0 Z " fill="#FCFCFE" transform="translate(400.25,589.5)"/>
</svg>
